<?xml version="1.0" encoding="iso-8859-1"?>
<!-- Uploaded to: SVG Repo, www.svgrepo.com, Generator: SVG Repo Mixer Tools -->
<!DOCTYPE svg PUBLIC "-//W3C//DTD SVG 1.1//EN" "http://www.w3.org/Graphics/SVG/1.1/DTD/svg11.dtd">
<svg fill="white" version="1.1" id="Capa_1" xmlns="http://www.w3.org/2000/svg" xmlns:xlink="http://www.w3.org/1999/xlink" 
	 width="800px" height="800px" viewBox="0 0 152.765 152.765"
	 xml:space="preserve">
<g>
	<g>
		<path d="M117.518,0H35.25C15.872,0,11.749,4.104,11.749,23.507v105.754c0,19.381,4.116,23.504,23.501,23.504h79.327v-6.235H35.25
			c-15.975,0-17.266-1.291-17.266-17.269V23.507c0-15.975,1.291-17.272,17.266-17.272h82.268c15.972,0,17.263,1.291,17.263,17.272
			v102.818h6.235V23.507C141.016,4.104,136.899,0,117.518,0z"/>
		<polygon points="118.443,148.892 137.149,130.186 118.443,130.186 		"/>
		<path d="M76.386,32.735c-24.113,0-43.647,19.546-43.647,43.647c0,24.107,19.534,43.647,43.647,43.647s43.646-19.54,43.646-43.647
			C120.032,52.282,100.499,32.735,76.386,32.735z M76.386,90.935c-8.032,0-14.547-6.521-14.547-14.553S68.354,61.83,76.386,61.83
			c8.031,0,14.547,6.521,14.547,14.553S84.417,90.935,76.386,90.935z"/>
		<path d="M76.386,65.471c6.022,0,10.911,4.886,10.911,10.912c0,6.028-4.889,10.912-10.911,10.912
			c-6.025,0-10.912-4.884-10.912-10.912C65.474,70.357,70.36,65.471,76.386,65.471z"/>
	</g>
</g>
</svg>