<svg width="48" height="48" viewBox="0 0 48 48" fill="none" xmlns="http://www.w3.org/2000/svg">
<path fill-rule="evenodd" clip-rule="evenodd" d="M23.545 0C10.562 0 0 10.562 0 23.545C0 36.528 10.562 47.09 23.545 47.09C36.527 47.09 47.09 36.528 47.09 23.545C47.09 10.562 36.527 0 23.545 0Z" fill="#FF0000"/>
<path d="M7.17488 13.4863C7.22797 13.6592 7.31756 13.9276 7.3787 14.0899C7.43889 14.2423 7.74935 15.1028 8.05461 16.0033C8.36792 16.8931 8.67223 17.7838 8.74427 17.9648C8.80731 18.1467 8.98079 18.6246 9.11872 19.0169C9.25665 19.4092 9.41828 19.8586 9.47942 20.0209C9.53961 20.1734 9.91501 21.2353 10.3061 22.365C10.9346 24.1642 11.4598 25.647 11.8679 26.7651C11.9399 26.9461 12.3034 27.9795 12.6807 29.061C13.8216 32.3047 13.8875 32.516 14.2473 33.5102C14.4435 34.0354 14.8071 35.0687 15.0602 35.8061C15.3133 36.5434 15.6129 37.3851 15.7223 37.6714L15.9276 38.1957L19.0525 37.9224C21.9695 37.6594 22.1755 37.6296 22.2053 37.4684C22.2271 37.3178 22.353 35.9006 22.4747 34.3452C22.5535 33.3778 23.4758 22.3746 23.5607 21.3769C23.6221 20.6981 23.7 20.0969 23.7483 20.0328C23.8368 19.9154 23.7581 19.6658 24.786 23.336C25.2425 24.954 25.8318 27.0045 26.0921 27.9093C26.6913 29.9687 28.6522 36.8929 28.6588 36.9615C28.6617 36.9909 30.0582 36.8753 31.7677 36.7096L34.8718 36.4087L34.8992 36.129C34.9119 35.9793 34.9998 35.387 35.0886 34.8045C35.1775 34.222 35.2777 33.5691 35.3107 33.3483C35.3438 33.1274 35.3972 32.8352 35.4199 32.6945C35.4516 32.5529 35.582 31.6498 35.7247 30.686C35.9492 29.1603 36.2932 26.9007 36.4737 25.7651C36.5097 25.5736 36.6699 24.5092 36.8353 23.4048C37.202 21.0044 37.2516 20.6731 37.3102 20.3409C37.3329 20.2001 37.4052 19.7281 37.4714 19.2863C37.5885 18.4339 38.0341 15.4421 38.1414 14.7687C38.1835 14.547 38.2341 14.2255 38.2548 14.0651C38.3754 13.341 38.7411 10.9309 38.7714 10.6806C38.785 10.5407 38.821 10.3492 38.8394 10.2584C38.8801 10.1159 38.5813 10.1251 35.7831 10.3963L32.688 10.6964L32.6342 11.2656C32.6106 11.5845 32.504 12.9207 32.4045 14.2365C32.305 15.5522 32.1998 16.8091 32.1757 17.0291C32.1517 17.2492 32.0922 17.9476 32.0531 18.5747C32.005 19.2027 31.8989 20.6378 31.8084 21.7647C31.7178 22.8916 31.5612 24.8362 31.4659 26.1021C31.2301 29.1032 31.182 29.5433 31.119 29.5494C31.092 29.552 30.5643 27.7627 29.9438 25.5768C28.6082 20.8876 26.6687 14.09 26.4819 13.4748C26.4132 13.2341 26.2786 12.7821 26.1932 12.4639C26.0989 12.1465 25.9908 11.781 25.9415 11.6472L25.8458 11.4091L22.9548 11.6597L20.0557 11.921L20.0316 12.141C20.026 12.2702 19.7886 14.9746 19.5159 18.1574C19.2432 21.3403 18.8941 25.421 18.7332 27.2276C18.5813 29.0332 18.4089 30.5341 18.3658 30.5581C18.2787 30.5962 18.1294 30.0863 16.9446 25.8277C16.7218 25.028 16.4833 24.1606 16.4036 23.9012C16.3231 23.632 16.0718 22.7262 15.8352 21.8784C15.2141 19.5936 15.005 18.8421 14.8723 18.4097C14.8064 18.1984 14.5589 17.3319 14.3313 16.4832C14.0948 15.6354 13.7501 14.4221 13.5794 13.7856L13.2494 12.6302L10.1695 12.8991L7.08149 13.1787L7.17488 13.4863Z" fill="white"/>
<path fill-rule="evenodd" clip-rule="evenodd" d="M34.83 3C33.033 7.609 28.942 8.568 23.016 8.568C22.38 8.568 21.75 8.558 21.142 8.549C20.554 8.541 19.998 8.532 19.453 8.532C18.969 8.532 18.481 8.538 18 8.559C18.83 6.521 20.155 5.136 22.041 4.296C24.67 3.126 28.088 3.114 31.104 3.105C32.418 3.1 33.676 3.095 34.83 3Z" fill="#008F32"/>
</svg>
