<svg width="202" height="48" viewBox="0 0 202 48" fill="none" xmlns="http://www.w3.org/2000/svg">
<path d="M92 11V18.4479L97 18.4479C97.6412 14.849 96.5398 14.6609 99.1502 14.6968V30.8214C99.1772 35.2237 98.6153 35.0709 96.1551 35.0851V37H101.966H102.034H107.845V35.0851C105.385 35.0709 104.823 35.2237 104.85 30.8214V14.6968C107.46 14.6609 106.359 14.849 107 18.4479L112 18.4479V11H102.034H101.966H92Z" fill="#FF0000"/>
<path fill-rule="evenodd" clip-rule="evenodd" d="M49.545 0C36.562 0 26 10.562 26 23.545C26 36.528 36.562 47.09 49.545 47.09C62.527 47.09 73.09 36.528 73.09 23.545C73.09 10.562 62.527 0 49.545 0Z" fill="#FF0000"/>
<path fill-rule="evenodd" clip-rule="evenodd" d="M60.83 3C59.033 7.609 54.942 8.568 49.016 8.568C48.38 8.568 47.75 8.558 47.142 8.549C46.554 8.541 45.998 8.532 45.453 8.532C44.969 8.532 44.481 8.538 44 8.559C44.83 6.521 46.155 5.136 48.041 4.296C50.67 3.126 54.088 3.114 57.104 3.105C58.418 3.1 59.676 3.095 60.83 3Z" fill="#008F32"/>
<path d="M82.3153 37.9843C83.8345 37.8949 85.1998 37.526 86.3839 36.88C86.7812 36.6639 87.0136 36.5166 87.362 36.2629C89.0594 35.0245 90.0938 33.3543 90.4286 31.3034C90.6035 30.2346 90.5925 29.0322 90.402 28.0231C90.09 26.3778 89.2937 25.0315 88.0191 24.001C87.3671 23.4743 86.6931 23.1207 85.2507 22.5535C84.472 22.2472 84.0798 22.1066 82.0546 21.4046C80.999 21.0391 80.3972 20.7103 79.9911 20.2767C79.8401 20.1154 79.787 20.0419 79.7256 19.9074L79.6485 19.7413L79.646 19.4122C79.6452 19.0515 79.6769 18.8635 79.7839 18.599C80.0591 17.9302 80.7391 17.5222 81.8103 17.3834C82.7571 17.2623 83.6218 17.3487 84.3712 17.6405C84.6503 17.7481 85.1036 17.9936 85.44 18.2189C85.9172 18.536 86.3755 18.9186 86.944 19.4713C87.1047 19.6262 87.2419 19.756 87.2477 19.7538C87.2536 19.7538 88.0838 18.6273 89.0932 17.2527L90.927 14.7517L90.9257 14.5745L90.9243 14.3973L90.5582 14.0941C89.3481 13.1032 88.4054 12.4732 87.3937 11.9808C86.3429 11.4719 85.2023 11.183 83.7574 11.0609C81.1423 10.8401 79.1853 11.1902 77.3442 12.2061C75.8074 13.0552 74.5961 14.2246 73.8686 15.5633C73.1661 16.8534 72.8699 18.3534 72.9856 20.0361C73.0512 20.9933 73.2091 21.8001 73.4855 22.5913C73.5949 22.9111 73.9035 23.5755 74.075 23.8632C74.5815 24.718 75.3289 25.514 76.1446 26.0691C76.3128 26.1838 76.7993 26.4502 77.102 26.5935C77.9379 26.9902 79.2357 27.4762 80.8197 27.9917C81.955 28.3608 82.2497 28.4725 82.7147 28.7158C83.0625 28.8989 83.3129 29.0742 83.509 29.2731C83.7776 29.5475 83.8727 29.7767 83.8557 30.0996C83.8144 30.813 83.3665 31.2952 82.5296 31.5315C82.1761 31.6312 81.9506 31.6582 81.4602 31.6619C80.5554 31.6687 79.7991 31.495 79.0255 31.1021C78.4844 30.8277 78.1146 30.5647 77.5073 30.0207C77.327 29.8596 77.2664 29.8179 77.251 29.837C77.1815 29.9177 73.4436 34.8886 73.436 34.9098C73.4284 34.9331 74.1604 35.4993 74.4949 35.7267C76.0754 36.8076 77.606 37.4628 79.317 37.7875C80.2427 37.9661 81.3836 38.0399 82.3153 37.9843Z" fill="#FF0000"/>
<path d="M33.1749 13.4863C33.228 13.6592 33.3176 13.9276 33.3787 14.0899C33.4389 14.2423 33.7493 15.1028 34.0546 16.0033C34.3679 16.8931 34.6722 17.7838 34.7443 17.9648C34.8073 18.1467 34.9808 18.6246 35.1187 19.0169C35.2567 19.4092 35.4183 19.8586 35.4794 20.0209C35.5396 20.1734 35.915 21.2353 36.3061 22.365C36.9346 24.1642 37.4598 25.647 37.8679 26.7651C37.9399 26.9461 38.3034 27.9795 38.6807 29.061C39.8216 32.3047 39.8875 32.516 40.2473 33.5102C40.4435 34.0354 40.8071 35.0687 41.0602 35.8061C41.3133 36.5434 41.6129 37.3851 41.7223 37.6714L41.9276 38.1957L45.0525 37.9224C47.9695 37.6594 48.1755 37.6296 48.2053 37.4684C48.2271 37.3178 48.353 35.9006 48.4747 34.3452C48.5535 33.3778 49.4758 22.3746 49.5607 21.3769C49.6221 20.6981 49.7 20.0969 49.7483 20.0328C49.8368 19.9154 49.7581 19.6658 50.786 23.336C51.2425 24.954 51.8318 27.0045 52.0921 27.9093C52.6913 29.9687 54.6522 36.8929 54.6588 36.9615C54.6617 36.9909 56.0582 36.8753 57.7677 36.7096L60.8718 36.4087L60.8992 36.129C60.9119 35.9793 60.9998 35.387 61.0886 34.8045C61.1775 34.222 61.2777 33.5691 61.3107 33.3483C61.3438 33.1274 61.3972 32.8352 61.4199 32.6945C61.4516 32.5529 61.582 31.6498 61.7247 30.686C61.9492 29.1603 62.2932 26.9007 62.4737 25.7651C62.5097 25.5736 62.6699 24.5092 62.8353 23.4048C63.202 21.0044 63.2516 20.6731 63.3102 20.3409C63.3329 20.2001 63.4052 19.7281 63.4714 19.2863C63.5885 18.4339 64.0341 15.4421 64.1414 14.7687C64.1835 14.547 64.2341 14.2255 64.2548 14.0651C64.3754 13.341 64.7411 10.9309 64.7714 10.6806C64.785 10.5407 64.821 10.3492 64.8394 10.2584C64.8801 10.1159 64.5813 10.1251 61.7831 10.3963L58.688 10.6964L58.6342 11.2656C58.6106 11.5845 58.504 12.9207 58.4045 14.2365C58.305 15.5522 58.1998 16.8091 58.1757 17.0292C58.1517 17.2492 58.0922 17.9476 58.0531 18.5747C58.005 19.2027 57.8989 20.6378 57.8084 21.7647C57.7178 22.8916 57.5612 24.8362 57.4659 26.1021C57.2301 29.1032 57.182 29.5433 57.119 29.5494C57.092 29.552 56.5643 27.7627 55.9438 25.5768C54.6082 20.8876 52.6687 14.09 52.4819 13.4748C52.4132 13.2341 52.2786 12.7821 52.1932 12.4639C52.0989 12.1465 51.9908 11.781 51.9415 11.6472L51.8458 11.4091L48.9548 11.6597L46.0557 11.921L46.0316 12.141C46.026 12.2702 45.7886 14.9746 45.5159 18.1574C45.2432 21.3403 44.8941 25.421 44.7332 27.2276C44.5813 29.0332 44.4089 30.5341 44.3658 30.5581C44.2787 30.5962 44.1294 30.0863 42.9446 25.8277C42.7218 25.028 42.4833 24.1606 42.4036 23.9012C42.3231 23.632 42.0718 22.7262 41.8352 21.8784C41.2141 19.5936 41.005 18.8421 40.8723 18.4097C40.8064 18.1984 40.5589 17.3319 40.3313 16.4832C40.0948 15.6354 39.7501 14.4221 39.5794 13.7856L39.2494 12.6302L36.1695 12.8991L33.0815 13.1787L33.1749 13.4863Z" fill="white"/>
<path d="M113.06 11.0737L113 11.1496V12.0898V13.0301L113.119 13.0457C114.168 13.1775 114.851 13.4164 115.136 13.7492C115.359 14.0105 115.493 14.4705 115.552 15.1763C115.578 15.4956 115.578 32.5267 115.552 32.8461C115.514 33.3084 115.431 33.7126 115.325 33.9605C115.155 34.3602 114.856 34.5746 114.202 34.7645C113.973 34.8315 113.474 34.9297 113.236 34.9543C113.164 34.961 113.081 34.9744 113.053 34.9789L113 34.9923V35.9347V36.8772L113.053 36.9375L113.108 37L118.965 36.9911C125.186 36.9844 124.893 36.9888 125.759 36.8861C129.214 36.4774 131.823 35.0883 133.586 32.7143C134.648 31.285 135.365 29.5095 135.728 27.4058C136.04 25.5901 136.087 23.3791 135.852 21.4295C135.567 19.06 134.864 17.0902 133.726 15.4688C133.516 15.1696 132.974 14.5241 132.707 14.2539C130.923 12.4494 128.543 11.4109 125.485 11.1027C124.64 11.0179 124.615 11.0179 118.822 11.0089L113.123 11L113.06 11.0737ZM124.256 13.0569C125.793 13.1373 126.904 13.5661 127.762 14.4147C128.793 15.4331 129.392 17.1393 129.689 19.9019C129.895 21.8203 129.936 24.5896 129.794 26.8363C129.668 28.8038 129.377 30.4632 128.955 31.6267C128.246 33.5741 126.948 34.626 124.899 34.9096C124.542 34.9588 123.566 34.9789 123.196 34.9454C122.253 34.856 121.759 34.6394 121.523 34.2039C121.394 33.965 121.289 33.5585 121.228 33.056C121.198 32.8081 121.196 32.1739 121.188 24.2345C121.185 18.2314 121.188 15.576 121.203 15.3281C121.251 14.4906 121.398 13.9278 121.646 13.6308C121.924 13.2981 122.525 13.1038 123.424 13.0591C123.612 13.0502 123.782 13.039 123.802 13.039C123.823 13.0368 124.027 13.0457 124.256 13.0569Z" fill="#FF0000"/>
</svg>
