<svg width="54" height="53" viewBox="0 0 54 53" fill="none" xmlns="http://www.w3.org/2000/svg">
<path fill-rule="evenodd" clip-rule="evenodd" d="M27 0C12.1119 0 0 11.8876 0 26.5C0 41.1124 12.1119 53 27 53C41.887 53 54 41.1124 54 26.5C54 11.8876 41.887 0 27 0Z" fill="#151A22"/>
<path d="M7.10709 15.8101C7.16797 16.0048 7.27071 16.3068 7.34082 16.4895C7.40984 16.6611 7.76586 17.6295 8.11591 18.643C8.4752 19.6445 8.82416 20.647 8.90677 20.8508C8.97907 21.0555 9.178 21.5934 9.33617 22.0349C9.49434 22.4765 9.67969 22.9822 9.7498 23.1649C9.81882 23.3365 10.2493 24.5317 10.6977 25.8031C11.4185 27.8282 12.0207 29.4971 12.4887 30.7555C12.5713 30.9593 12.9882 32.1223 13.4209 33.3396C14.7292 36.9904 14.8048 37.2282 15.2173 38.3471C15.4423 38.9382 15.8592 40.1013 16.1495 40.9312C16.4397 41.7611 16.7833 42.7084 16.9088 43.0306L17.1441 43.6207L20.7276 43.3131C24.0727 43.0171 24.3089 42.9835 24.3431 42.8021C24.368 42.6327 24.5125 41.0375 24.652 39.287C24.7424 38.1981 25.8 25.814 25.8974 24.6911C25.9677 23.9271 26.0571 23.2504 26.1125 23.1783C26.214 23.0462 26.1237 22.7652 27.3024 26.896C27.826 28.7172 28.5017 31.0249 28.8002 32.0434C29.4874 34.3612 31.736 42.1544 31.7436 42.2316C31.7469 42.2647 33.3483 42.1346 35.3086 41.9481L38.8682 41.6094L38.8996 41.2946C38.9142 41.1262 39.015 40.4595 39.1169 39.8039C39.2188 39.1483 39.3337 38.4135 39.3716 38.1649C39.4095 37.9163 39.4708 37.5875 39.4968 37.4291C39.5331 37.2697 39.6827 36.2532 39.8463 35.1686C40.1037 33.4513 40.4982 30.9081 40.7053 29.63C40.7465 29.4144 40.9302 28.2165 41.1198 26.9734C41.5404 24.2718 41.5973 23.8989 41.6645 23.525C41.6905 23.3666 41.7734 22.8353 41.8493 22.3381C41.9836 21.3787 42.4946 18.0114 42.6177 17.2536C42.6659 17.004 42.7239 16.6421 42.7477 16.4616C42.8859 15.6467 43.3054 12.934 43.34 12.6523C43.3557 12.4949 43.3969 12.2794 43.4181 12.1771C43.4647 12.0168 43.1221 12.0271 39.9133 12.3324L36.364 12.6701L36.3023 13.3108C36.2753 13.6697 36.153 15.1736 36.0389 16.6545C35.9248 18.1354 35.8042 19.55 35.7766 19.7977C35.749 20.0453 35.6808 20.8313 35.636 21.5372C35.5808 22.244 35.4591 23.8593 35.3553 25.1276C35.2514 26.3959 35.0719 28.5846 34.9626 30.0093C34.6922 33.3871 34.637 33.8824 34.5648 33.8892C34.5338 33.8922 33.9287 31.8784 33.2171 29.4181C31.6856 24.1403 29.4615 16.4896 29.2473 15.7973C29.1684 15.5263 29.014 15.0176 28.9162 14.6594C28.808 14.3022 28.684 13.8908 28.6275 13.7403L28.5177 13.4723L25.2025 13.7543L21.878 14.0484L21.8504 14.296C21.844 14.4414 21.5718 17.4853 21.2591 21.0676C20.9464 24.6499 20.546 29.2428 20.3615 31.276C20.1873 33.3083 19.9896 34.9976 19.9402 35.0246C19.8403 35.0675 19.6691 34.4935 18.3104 29.7005C18.0549 28.8005 17.7814 27.8242 17.6901 27.5322C17.5977 27.2292 17.3095 26.2098 17.0382 25.2556C16.326 22.684 16.0862 21.8381 15.934 21.3515C15.8585 21.1137 15.5747 20.1384 15.3137 19.1832C15.0424 18.229 14.6472 16.8634 14.4514 16.147L14.073 14.8467L10.5411 15.1493L6.99999 15.464L7.10709 15.8101Z" fill="#1C232E"/>
<path fill-rule="evenodd" clip-rule="evenodd" d="M35.2996 3C33.2389 8.18745 28.5476 9.26681 21.7521 9.26681C21.0227 9.26681 20.3003 9.25555 19.6031 9.24542C18.9288 9.23642 18.2912 9.22629 17.6662 9.22629C17.1112 9.22629 16.5516 9.23304 16 9.25668C16.9518 6.9629 18.4712 5.40408 20.634 4.45865C23.6488 3.14181 27.5683 3.12831 31.0269 3.11818C32.5337 3.11255 33.9763 3.10692 35.2996 3Z" fill="#992424"/>
</svg>
