<svg width="202" height="48" viewBox="0 0 202 48" fill="none" xmlns="http://www.w3.org/2000/svg">
<path d="M94 11V18.4479L99 18.4479C99.6412 14.849 98.5398 14.6609 101.15 14.6968V30.8214C101.177 35.2237 100.615 35.0709 98.1551 35.0851V37H103.966H104.034H109.845V35.0851C107.385 35.0709 106.823 35.2237 106.85 30.8214V14.6968C109.46 14.6609 108.359 14.849 109 18.4479L114 18.4479V11H104.034H103.966H94Z" fill="#FF0000"/>
<path fill-rule="evenodd" clip-rule="evenodd" d="M49.545 0C36.562 0 26 10.562 26 23.545C26 36.528 36.562 47.09 49.545 47.09C62.527 47.09 73.09 36.528 73.09 23.545C73.09 10.562 62.527 0 49.545 0Z" fill="#FF0000"/>
<path fill-rule="evenodd" clip-rule="evenodd" d="M60.83 3C59.033 7.609 54.942 8.568 49.016 8.568C48.38 8.568 47.75 8.558 47.142 8.549C46.554 8.541 45.998 8.532 45.453 8.532C44.969 8.532 44.481 8.538 44 8.559C44.83 6.521 46.155 5.136 48.041 4.296C50.67 3.126 54.088 3.114 57.104 3.105C58.418 3.1 59.676 3.095 60.83 3Z" fill="#008F32"/>
<path d="M82.7622 11.0132C81.0735 11.0883 79.5535 11.4337 78.2324 12.0472C77.7892 12.2524 77.5297 12.3925 77.1405 12.6343C75.2443 13.8145 74.0811 15.4153 73.6919 17.3878C73.4886 18.4157 73.4908 19.5737 73.6941 20.5467C74.027 22.1333 74.9005 23.4354 76.3081 24.4369C77.0281 24.9488 77.7741 25.2942 79.3719 25.8508C80.2346 26.1515 80.6692 26.2896 82.9135 26.9803C84.0833 27.3399 84.7492 27.6608 85.1968 28.0813C85.3633 28.2377 85.4216 28.3088 85.4887 28.4389L85.573 28.5993V28.9163C85.5708 29.2636 85.5341 29.4444 85.413 29.6984C85.1016 30.3403 84.3427 30.7283 83.1514 30.8542C82.0984 30.9639 81.1384 30.8746 80.3081 30.5881C79.9989 30.4825 79.4973 30.2428 79.1254 30.0234C78.5978 29.7146 78.0919 29.3429 77.4649 28.8066C77.2876 28.6562 77.1362 28.5303 77.1297 28.5323C77.1232 28.5323 76.1914 29.611 75.0584 30.9274L73 33.3224V33.4931V33.6637L73.4043 33.9583C74.7405 34.9212 75.7827 35.5347 76.9027 36.0161C78.066 36.5138 79.3308 36.8003 80.9351 36.9282C83.8389 37.1598 86.0162 36.8368 88.0703 35.8719C89.7849 35.0654 91.1406 33.9481 91.96 32.6643C92.7514 31.4271 93.093 29.9848 92.9784 28.3637C92.9135 27.4414 92.7449 26.6634 92.4443 25.8996C92.3254 25.5908 91.9881 24.9488 91.8 24.6705C91.2443 23.8437 90.4206 23.0718 89.5189 22.5314C89.333 22.4197 88.7946 22.1597 88.4595 22.0195C87.5341 21.6315 86.0962 21.1541 84.3406 20.6463C83.0822 20.2826 82.7557 20.1729 82.2411 19.9353C81.8562 19.7565 81.5795 19.5858 81.3633 19.3929C81.067 19.1267 80.9633 18.9053 80.9849 18.5945C81.0368 17.9079 81.5384 17.4467 82.4703 17.2253C82.8638 17.1319 83.1146 17.1075 83.6595 17.1075C84.6649 17.1075 85.5038 17.2802 86.36 17.6641C86.9589 17.9323 87.3676 18.1882 88.0379 18.7164C88.2368 18.8728 88.3038 18.9134 88.3211 18.8952C88.3989 18.818 92.5935 14.0583 92.6022 14.038C92.6108 14.0156 91.8022 13.4651 91.4325 13.2437C89.6854 12.1914 87.9903 11.5495 86.0919 11.2244C85.0649 11.0457 83.7978 10.9665 82.7622 11.0132Z" fill="#FF0000"/>
<path d="M33.1749 13.4863C33.228 13.6592 33.3176 13.9276 33.3787 14.0899C33.4389 14.2423 33.7493 15.1028 34.0546 16.0033C34.3679 16.8931 34.6722 17.7838 34.7443 17.9648C34.8073 18.1467 34.9808 18.6246 35.1187 19.0169C35.2567 19.4092 35.4183 19.8586 35.4794 20.0209C35.5396 20.1734 35.915 21.2353 36.3061 22.365C36.9346 24.1642 37.4598 25.647 37.8679 26.7651C37.9399 26.9461 38.3034 27.9795 38.6807 29.061C39.8216 32.3047 39.8875 32.516 40.2473 33.5102C40.4435 34.0354 40.8071 35.0687 41.0602 35.8061C41.3133 36.5434 41.6129 37.3851 41.7223 37.6714L41.9276 38.1957L45.0525 37.9224C47.9695 37.6594 48.1755 37.6296 48.2053 37.4684C48.2271 37.3178 48.353 35.9006 48.4747 34.3452C48.5535 33.3778 49.4758 22.3746 49.5607 21.3769C49.6221 20.6981 49.7 20.0969 49.7483 20.0328C49.8368 19.9154 49.7581 19.6658 50.786 23.336C51.2425 24.954 51.8318 27.0045 52.0921 27.9093C52.6913 29.9687 54.6522 36.8929 54.6588 36.9615C54.6617 36.9909 56.0582 36.8753 57.7677 36.7096L60.8718 36.4087L60.8992 36.129C60.9119 35.9793 60.9998 35.387 61.0886 34.8045C61.1775 34.222 61.2777 33.5691 61.3107 33.3483C61.3438 33.1274 61.3972 32.8352 61.4199 32.6945C61.4516 32.5529 61.582 31.6498 61.7247 30.686C61.9492 29.1603 62.2932 26.9007 62.4737 25.7651C62.5097 25.5736 62.6699 24.5092 62.8353 23.4048C63.202 21.0044 63.2516 20.6731 63.3102 20.3409C63.3329 20.2001 63.4052 19.7281 63.4714 19.2863C63.5885 18.4339 64.0341 15.4421 64.1414 14.7687C64.1835 14.547 64.2341 14.2255 64.2548 14.0651C64.3754 13.341 64.7411 10.9309 64.7714 10.6806C64.785 10.5407 64.821 10.3492 64.8394 10.2584C64.8801 10.1159 64.5813 10.1251 61.7831 10.3963L58.688 10.6964L58.6342 11.2656C58.6106 11.5845 58.504 12.9207 58.4045 14.2365C58.305 15.5522 58.1998 16.8091 58.1757 17.0291C58.1517 17.2492 58.0922 17.9476 58.0531 18.5747C58.005 19.2027 57.8989 20.6378 57.8084 21.7647C57.7178 22.8916 57.5612 24.8362 57.4659 26.1021C57.2301 29.1032 57.182 29.5433 57.119 29.5494C57.092 29.552 56.5643 27.7627 55.9438 25.5768C54.6082 20.8876 52.6687 14.09 52.4819 13.4748C52.4132 13.2341 52.2786 12.7821 52.1932 12.4639C52.0989 12.1465 51.9908 11.781 51.9415 11.6472L51.8458 11.4091L48.9548 11.6597L46.0557 11.921L46.0316 12.141C46.026 12.2702 45.7886 14.9746 45.5159 18.1574C45.2432 21.3403 44.8941 25.421 44.7332 27.2276C44.5813 29.0332 44.4089 30.5341 44.3658 30.5581C44.2787 30.5962 44.1294 30.0863 42.9446 25.8277C42.7218 25.028 42.4833 24.1606 42.4036 23.9012C42.3231 23.632 42.0718 22.7262 41.8352 21.8784C41.2141 19.5936 41.005 18.8421 40.8723 18.4097C40.8064 18.1984 40.5589 17.3319 40.3313 16.4832C40.0948 15.6354 39.7501 14.4221 39.5794 13.7856L39.2494 12.6302L36.1695 12.8991L33.0815 13.1787L33.1749 13.4863Z" fill="white"/>
<path d="M115.06 11.0737L115 11.1496V12.0898V13.0301L115.119 13.0457C116.168 13.1775 116.851 13.4164 117.136 13.7492C117.359 14.0105 117.493 14.4705 117.552 15.1763C117.578 15.4956 117.578 32.5267 117.552 32.8461C117.514 33.3084 117.431 33.7126 117.325 33.9605C117.155 34.3602 116.856 34.5746 116.202 34.7645C115.973 34.8315 115.474 34.9297 115.236 34.9543C115.164 34.961 115.081 34.9744 115.053 34.9789L115 34.9923V35.9347V36.8772L115.053 36.9375L115.108 37L120.965 36.9911C127.186 36.9844 126.893 36.9888 127.759 36.8861C131.214 36.4774 133.823 35.0883 135.586 32.7143C136.648 31.285 137.365 29.5095 137.728 27.4058C138.04 25.5901 138.087 23.3791 137.852 21.4295C137.567 19.06 136.864 17.0902 135.726 15.4688C135.516 15.1696 134.974 14.5241 134.707 14.2539C132.923 12.4494 130.543 11.4109 127.485 11.1027C126.64 11.0179 126.615 11.0179 120.822 11.0089L115.123 11L115.06 11.0737ZM126.256 13.0569C127.793 13.1373 128.904 13.5661 129.762 14.4147C130.793 15.4331 131.392 17.1393 131.689 19.9019C131.895 21.8203 131.936 24.5896 131.794 26.8363C131.668 28.8038 131.377 30.4632 130.955 31.6267C130.246 33.5741 128.948 34.626 126.899 34.9096C126.542 34.9588 125.566 34.9789 125.196 34.9454C124.253 34.856 123.759 34.6394 123.523 34.2039C123.394 33.965 123.289 33.5585 123.228 33.056C123.198 32.8081 123.196 32.1739 123.188 24.2345C123.185 18.2314 123.188 15.576 123.203 15.3281C123.251 14.4906 123.398 13.9278 123.646 13.6308C123.924 13.2981 124.525 13.1038 125.424 13.0591C125.612 13.0502 125.782 13.039 125.802 13.039C125.823 13.0368 126.027 13.0457 126.256 13.0569Z" fill="#FF0000"/>
</svg>
